<mxfile host="app.diagrams.net" modified="2023-10-11T08:24:49.403Z" agent="Mozilla/5.0 (X11; Linux x86_64; rv:109.0) Gecko/20100101 Firefox/118.0" etag="GBF-HM1Mj-2HVQpj_AQo" version="22.0.4" type="device">
  <diagram name="Page-1" id="TyuZdf6QjHZHngmUzGnq">
    <mxGraphModel dx="988" dy="546" grid="1" gridSize="10" guides="1" tooltips="1" connect="1" arrows="1" fold="1" page="1" pageScale="1" pageWidth="850" pageHeight="1100" math="0" shadow="0">
      <root>
        <mxCell id="0" />
        <mxCell id="1" parent="0" />
        <mxCell id="cbqzhxbUob0mX_JXvb13-1" value="&lt;div&gt;gcc -E -&lt;br&gt;&lt;/div&gt;" style="rounded=0;whiteSpace=wrap;html=1;fillColor=#dae8fc;strokeColor=#6c8ebf;" vertex="1" parent="1">
          <mxGeometry x="270" y="460" width="120" height="60" as="geometry" />
        </mxCell>
        <mxCell id="cbqzhxbUob0mX_JXvb13-2" value="constants.h + xx.vala" style="rounded=0;whiteSpace=wrap;html=1;fillColor=#dae8fc;strokeColor=#6c8ebf;" vertex="1" parent="1">
          <mxGeometry x="120" y="460" width="120" height="60" as="geometry" />
        </mxCell>
        <mxCell id="cbqzhxbUob0mX_JXvb13-3" value="" style="endArrow=classic;html=1;rounded=0;exitX=1;exitY=0.5;exitDx=0;exitDy=0;entryX=0;entryY=0.5;entryDx=0;entryDy=0;fillColor=#dae8fc;strokeColor=#6c8ebf;" edge="1" parent="1" source="cbqzhxbUob0mX_JXvb13-2" target="cbqzhxbUob0mX_JXvb13-1">
          <mxGeometry width="50" height="50" relative="1" as="geometry">
            <mxPoint x="400" y="620" as="sourcePoint" />
            <mxPoint x="450" y="570" as="targetPoint" />
          </mxGeometry>
        </mxCell>
        <mxCell id="cbqzhxbUob0mX_JXvb13-4" value=".generated/xxx.vala" style="rounded=0;whiteSpace=wrap;html=1;fillColor=#dae8fc;strokeColor=#6c8ebf;" vertex="1" parent="1">
          <mxGeometry x="425" y="460" width="120" height="60" as="geometry" />
        </mxCell>
        <mxCell id="cbqzhxbUob0mX_JXvb13-7" style="edgeStyle=orthogonalEdgeStyle;rounded=0;orthogonalLoop=1;jettySize=auto;html=1;entryX=0;entryY=0.5;entryDx=0;entryDy=0;exitX=1;exitY=0.5;exitDx=0;exitDy=0;fillColor=#dae8fc;strokeColor=#6c8ebf;" edge="1" parent="1" source="cbqzhxbUob0mX_JXvb13-1" target="cbqzhxbUob0mX_JXvb13-4">
          <mxGeometry relative="1" as="geometry" />
        </mxCell>
        <mxCell id="cbqzhxbUob0mX_JXvb13-5" value="xxx.c" style="rounded=0;whiteSpace=wrap;html=1;fillColor=#dae8fc;strokeColor=#6c8ebf;" vertex="1" parent="1">
          <mxGeometry x="425" y="560" width="120" height="60" as="geometry" />
        </mxCell>
        <mxCell id="cbqzhxbUob0mX_JXvb13-6" value="" style="endArrow=classic;html=1;rounded=0;exitX=0.5;exitY=1;exitDx=0;exitDy=0;entryX=0.5;entryY=0;entryDx=0;entryDy=0;" edge="1" parent="1" source="cbqzhxbUob0mX_JXvb13-4" target="cbqzhxbUob0mX_JXvb13-5">
          <mxGeometry width="50" height="50" relative="1" as="geometry">
            <mxPoint x="610" y="590" as="sourcePoint" />
            <mxPoint x="660" y="540" as="targetPoint" />
          </mxGeometry>
        </mxCell>
        <mxCell id="cbqzhxbUob0mX_JXvb13-8" value="xxx.o" style="rounded=0;whiteSpace=wrap;html=1;fillColor=#dae8fc;strokeColor=#6c8ebf;" vertex="1" parent="1">
          <mxGeometry x="270" y="560" width="120" height="60" as="geometry" />
        </mxCell>
        <mxCell id="cbqzhxbUob0mX_JXvb13-9" value="" style="endArrow=classic;html=1;rounded=0;entryX=1;entryY=0.5;entryDx=0;entryDy=0;exitX=0;exitY=0.5;exitDx=0;exitDy=0;fillColor=#dae8fc;strokeColor=#6c8ebf;" edge="1" parent="1" source="cbqzhxbUob0mX_JXvb13-5" target="cbqzhxbUob0mX_JXvb13-8">
          <mxGeometry width="50" height="50" relative="1" as="geometry">
            <mxPoint x="420" y="600" as="sourcePoint" />
            <mxPoint x="450" y="570" as="targetPoint" />
          </mxGeometry>
        </mxCell>
        <mxCell id="cbqzhxbUob0mX_JXvb13-12" value="libymp.so" style="rounded=0;whiteSpace=wrap;html=1;fillColor=#f8cecc;strokeColor=#b85450;" vertex="1" parent="1">
          <mxGeometry x="120" y="560" width="120" height="60" as="geometry" />
        </mxCell>
        <mxCell id="cbqzhxbUob0mX_JXvb13-13" value="" style="endArrow=classic;html=1;rounded=0;exitX=0;exitY=0.5;exitDx=0;exitDy=0;entryX=1;entryY=0.5;entryDx=0;entryDy=0;" edge="1" parent="1" source="cbqzhxbUob0mX_JXvb13-8" target="cbqzhxbUob0mX_JXvb13-12">
          <mxGeometry width="50" height="50" relative="1" as="geometry">
            <mxPoint x="300" y="590" as="sourcePoint" />
            <mxPoint x="350" y="540" as="targetPoint" />
          </mxGeometry>
        </mxCell>
        <mxCell id="cbqzhxbUob0mX_JXvb13-14" value="ccode/aaa.c" style="rounded=0;whiteSpace=wrap;html=1;fillColor=#d5e8d4;strokeColor=#82b366;" vertex="1" parent="1">
          <mxGeometry x="270" y="650" width="120" height="60" as="geometry" />
        </mxCell>
        <mxCell id="cbqzhxbUob0mX_JXvb13-15" value="" style="endArrow=classic;html=1;rounded=0;exitX=0;exitY=0.5;exitDx=0;exitDy=0;fillColor=#d5e8d4;strokeColor=#82b366;" edge="1" parent="1" source="cbqzhxbUob0mX_JXvb13-14">
          <mxGeometry width="50" height="50" relative="1" as="geometry">
            <mxPoint x="300" y="590" as="sourcePoint" />
            <mxPoint x="240" y="680" as="targetPoint" />
          </mxGeometry>
        </mxCell>
        <mxCell id="cbqzhxbUob0mX_JXvb13-16" value="aaa.o" style="rounded=0;whiteSpace=wrap;html=1;fillColor=#d5e8d4;strokeColor=#82b366;" vertex="1" parent="1">
          <mxGeometry x="120" y="650" width="120" height="60" as="geometry" />
        </mxCell>
        <mxCell id="cbqzhxbUob0mX_JXvb13-17" value="" style="endArrow=classic;html=1;rounded=0;exitX=0.5;exitY=0;exitDx=0;exitDy=0;" edge="1" parent="1" source="cbqzhxbUob0mX_JXvb13-16" target="cbqzhxbUob0mX_JXvb13-12">
          <mxGeometry width="50" height="50" relative="1" as="geometry">
            <mxPoint x="300" y="590" as="sourcePoint" />
            <mxPoint x="350" y="540" as="targetPoint" />
          </mxGeometry>
        </mxCell>
        <mxCell id="cbqzhxbUob0mX_JXvb13-18" value="cli/main.vala" style="rounded=0;whiteSpace=wrap;html=1;fillColor=#e1d5e7;strokeColor=#9673a6;" vertex="1" parent="1">
          <mxGeometry x="425" y="770" width="120" height="60" as="geometry" />
        </mxCell>
        <mxCell id="cbqzhxbUob0mX_JXvb13-19" value="main.o" style="rounded=0;whiteSpace=wrap;html=1;fillColor=#e1d5e7;strokeColor=#9673a6;" vertex="1" parent="1">
          <mxGeometry x="270" y="770" width="120" height="60" as="geometry" />
        </mxCell>
        <mxCell id="cbqzhxbUob0mX_JXvb13-20" value="ymp-cli" style="rounded=0;whiteSpace=wrap;html=1;fillColor=#f8cecc;strokeColor=#b85450;" vertex="1" parent="1">
          <mxGeometry x="120" y="770" width="120" height="60" as="geometry" />
        </mxCell>
        <mxCell id="cbqzhxbUob0mX_JXvb13-21" value="" style="endArrow=classic;html=1;rounded=0;exitX=0;exitY=0.5;exitDx=0;exitDy=0;entryX=1;entryY=0.5;entryDx=0;entryDy=0;" edge="1" parent="1" source="cbqzhxbUob0mX_JXvb13-18" target="cbqzhxbUob0mX_JXvb13-19">
          <mxGeometry width="50" height="50" relative="1" as="geometry">
            <mxPoint x="300" y="660" as="sourcePoint" />
            <mxPoint x="350" y="610" as="targetPoint" />
          </mxGeometry>
        </mxCell>
        <mxCell id="cbqzhxbUob0mX_JXvb13-22" value="" style="endArrow=classic;html=1;rounded=0;entryX=1;entryY=0.5;entryDx=0;entryDy=0;exitX=0;exitY=0.5;exitDx=0;exitDy=0;" edge="1" parent="1" source="cbqzhxbUob0mX_JXvb13-19">
          <mxGeometry width="50" height="50" relative="1" as="geometry">
            <mxPoint x="260" y="790" as="sourcePoint" />
            <mxPoint x="240" y="799.76" as="targetPoint" />
          </mxGeometry>
        </mxCell>
        <mxCell id="cbqzhxbUob0mX_JXvb13-23" value="" style="endArrow=classic;html=1;rounded=0;exitX=0;exitY=0.5;exitDx=0;exitDy=0;entryX=-0.011;entryY=0.567;entryDx=0;entryDy=0;entryPerimeter=0;" edge="1" parent="1" source="cbqzhxbUob0mX_JXvb13-12" target="cbqzhxbUob0mX_JXvb13-20">
          <mxGeometry width="50" height="50" relative="1" as="geometry">
            <mxPoint x="300" y="660" as="sourcePoint" />
            <mxPoint x="350" y="610" as="targetPoint" />
            <Array as="points">
              <mxPoint x="100" y="590" />
              <mxPoint x="100" y="804" />
            </Array>
          </mxGeometry>
        </mxCell>
      </root>
    </mxGraphModel>
  </diagram>
</mxfile>
